<?xml version="1.0" encoding="UTF-8" standalone="no"?>
<svg
   xmlns:dc="http://purl.org/dc/elements/1.1/"
   xmlns:cc="http://creativecommons.org/ns#"
   xmlns:rdf="http://www.w3.org/1999/02/22-rdf-syntax-ns#"
   xmlns:svg="http://www.w3.org/2000/svg"
   xmlns="http://www.w3.org/2000/svg"
   xmlns:sodipodi="http://sodipodi.sourceforge.net/DTD/sodipodi-0.dtd"
   xmlns:inkscape="http://www.inkscape.org/namespaces/inkscape"
   width="28"
   height="28"
   viewBox="0 0 28 28"
   version="1.1"
   id="svg16"
   sodipodi:docname="activity-bar.svg"
   inkscape:version="0.92.3 (2405546, 2018-03-11)">
  <metadata
     id="metadata14">
    <rdf:RDF>
      <cc:Work
         rdf:about="">
        <dc:format>image/svg+xml</dc:format>
        <dc:type
           rdf:resource="http://purl.org/dc/dcmitype/StillImage" />
      </cc:Work>
    </rdf:RDF>
  </metadata>
  <defs
     id="defs12" />
  <sodipodi:namedview
     pagecolor="#ffffff"
     bordercolor="#666666"
     borderopacity="1"
     objecttolerance="10"
     gridtolerance="10"
     guidetolerance="10"
     inkscape:pageopacity="0"
     inkscape:pageshadow="2"
     inkscape:window-width="1920"
     inkscape:window-height="1001"
     id="namedview10"
     showgrid="false"
     inkscape:zoom="8.4285714"
     inkscape:cx="14"
     inkscape:cy="14"
     inkscape:window-x="-9"
     inkscape:window-y="-9"
     inkscape:window-maximized="1"
     inkscape:current-layer="svg16" />
  <g
     id="Canvas"
     transform="matrix(1.5585108,0,0,1.5585108,-14.0762,-7.930494)"
     style="fill:none">
    <g
       id="g14"
       transform="matrix(0.14599762,0,0,0.14599762,0.00216912,0.00454992)">
      <path
         d="m 104.479,65.008 0.562,11.921 h -1.432 c -0.27,-2.098 -0.641,-3.594 -1.127,-4.502 -0.768,-1.445 -1.803,-2.507 -3.082,-3.198 -1.291,-0.69 -2.98,-1.036 -5.077,-1.036 H 87.16 v 38.833 c 0,3.121 0.345,5.064 1.011,5.846 0.946,1.049 2.417,1.572 4.387,1.572 h 1.766 v 1.381 H 72.771 v -1.381 h 1.804 c 2.148,0 3.671,-0.652 4.566,-1.957 0.55,-0.793 0.832,-2.621 0.832,-5.461 V 68.193 h -6.114 c -2.366,0 -4.055,0.179 -5.052,0.524 -1.304,0.474 -2.417,1.395 -3.338,2.737 -0.921,1.355 -1.471,3.172 -1.649,5.475 H 62.4 l 0.601,-11.921 z"
         id="path8"
         fill="#ffffff"
         inkscape:connector-curvature="0"
         style="clip-rule:evenodd;fill-rule:evenodd" />
      <path
         d="m 110.646,81.675 v 19.258 h 10.709 c 2.785,0 4.637,-0.418 5.568,-1.252 1.252,-1.104 1.939,-3.041 2.086,-5.826 h 1.324 v 16.965 h -1.324 c -0.332,-2.367 -0.674,-3.889 -1.006,-4.564 -0.43,-0.832 -1.141,-1.496 -2.121,-1.975 -0.982,-0.477 -2.49,-0.723 -4.527,-0.723 h -10.709 v 16.068 c 0,2.158 0.1,3.473 0.283,3.938 0.195,0.467 0.527,0.834 1.006,1.117 0.479,0.27 1.398,0.404 2.734,0.404 h 8.268 c 2.748,0 4.76,-0.184 6,-0.576 1.25,-0.381 2.439,-1.129 3.594,-2.258 1.484,-1.484 3.004,-3.729 4.562,-6.723 h 1.436 l -4.195,12.219 h -37.56 v -1.324 h 1.73 a 6.837,6.837 0 0 0 3.262,-0.834 c 0.773,-0.381 1.289,-0.957 1.57,-1.719 0.27,-0.771 0.404,-2.342 0.404,-4.709 v -31.66 c 0,-3.091 -0.305,-4.992 -0.932,-5.716 -0.859,-0.957 -2.293,-1.436 -4.305,-1.436 h -1.73 v -1.337 h 37.56 l 0.539,10.672 h -1.41 c -0.504,-2.563 -1.055,-4.318 -1.668,-5.274 -0.613,-0.957 -1.51,-1.693 -2.711,-2.196 -0.957,-0.355 -2.65,-0.539 -5.066,-0.539 z"
         id="path10"
         fill="#ffffff"
         inkscape:connector-curvature="0"
         style="clip-rule:evenodd;fill-rule:evenodd" />
      <path
         d="m 161.217,87.709 10.832,16.14 c 2.996,4.469 5.219,7.289 6.68,8.471 1.447,1.18 3.289,1.828 5.523,1.955 v 1.371 h -21.65 v -1.371 c 1.434,-0.025 2.502,-0.178 3.199,-0.457 a 3.051,3.051 0 0 0 1.283,-1.016 c 0.33,-0.457 0.494,-0.928 0.494,-1.398 a 4.8,4.8 0 0 0 -0.33,-1.713 c -0.178,-0.42 -0.863,-1.512 -2.043,-3.275 l -8.561,-12.941 -10.564,13.537 c -1.117,1.447 -1.791,2.4 -2.006,2.883 -0.229,0.482 -0.344,0.99 -0.344,1.51 0,0.801 0.344,1.449 1.004,1.969 0.672,0.521 1.955,0.826 3.834,0.902 v 1.371 h -17.893 v -1.371 c 1.271,-0.127 2.35,-0.395 3.277,-0.787 a 18.931,18.931 0 0 0 4.381,-2.604 c 1.396,-1.092 2.984,-2.77 4.762,-5.029 l 11.912,-15.022 -9.932,-14.553 c -2.705,-3.937 -5.002,-6.527 -6.883,-7.746 -1.891,-1.232 -4.062,-1.879 -6.514,-1.956 v -1.384 h 23.328 v 1.384 c -1.982,0.077 -3.34,0.394 -4.076,0.965 -0.725,0.571 -1.092,1.207 -1.092,1.892 0,0.927 0.596,2.26 1.777,4.025 l 7.746,11.569 8.965,-11.353 c 1.041,-1.333 1.676,-2.248 1.918,-2.743 0.229,-0.508 0.355,-1.016 0.355,-1.537 0,-0.521 -0.152,-0.978 -0.457,-1.372 a 2.9,2.9 0 0 0 -1.41,-1.092 c -0.572,-0.216 -1.752,-0.33 -3.529,-0.356 v -1.384 h 17.891 v 1.384 c -1.408,0.077 -2.564,0.292 -3.465,0.661 -1.334,0.571 -2.566,1.346 -3.684,2.311 -1.118,0.965 -2.691,2.756 -4.725,5.359 z"
         id="path12"
         fill="#ffffff"
         inkscape:connector-curvature="0"
         style="clip-rule:evenodd;fill-rule:evenodd" />
    </g>
  </g>
</svg>
