<?xml version="1.0" encoding="UTF-8" standalone="no"?>
<svg
   xmlns:dc="http://purl.org/dc/elements/1.1/"
   xmlns:cc="http://creativecommons.org/ns#"
   xmlns:rdf="http://www.w3.org/1999/02/22-rdf-syntax-ns#"
   xmlns:svg="http://www.w3.org/2000/svg"
   xmlns="http://www.w3.org/2000/svg"
   xmlns:sodipodi="http://sodipodi.sourceforge.net/DTD/sodipodi-0.dtd"
   xmlns:inkscape="http://www.inkscape.org/namespaces/inkscape"
   width="16"
   height="16"
   viewBox="0 0 16 16"
   version="1.1"
   id="svg11"
   sodipodi:docname="view-pdf-dark.svg"
   inkscape:version="0.92.1 r15371">
  <metadata
     id="metadata15">
    <rdf:RDF>
      <cc:Work
         rdf:about="">
        <dc:format>image/svg+xml</dc:format>
        <dc:type
           rdf:resource="http://purl.org/dc/dcmitype/StillImage" />
        <dc:title></dc:title>
      </cc:Work>
    </rdf:RDF>
  </metadata>
  <sodipodi:namedview
     pagecolor="#ffffff"
     bordercolor="#666666"
     borderopacity="1"
     objecttolerance="10"
     gridtolerance="10"
     guidetolerance="10"
     inkscape:pageopacity="0"
     inkscape:pageshadow="2"
     inkscape:window-width="1200"
     inkscape:window-height="1867"
     id="namedview13"
     showgrid="true"
     inkscape:zoom="45.254834"
     inkscape:cx="8.2174676"
     inkscape:cy="-1.385642"
     inkscape:window-x="1192"
     inkscape:window-y="-8"
     inkscape:window-maximized="1"
     inkscape:current-layer="svg11">
    <inkscape:grid
       type="xygrid"
       id="grid4492" />
  </sodipodi:namedview>
  <!-- Generator: Sketch 40.3 (33839) - http://www.bohemiancoding.com/sketch -->
  <path
     sodipodi:nodetypes="ccccccccccccc"
     inkscape:connector-curvature="0"
     d="M 14,9 H 11 V 6 H 7.000001 L 7,14 h 7 z m 1,-1 v 7 H 6 l 1e-6,-10 H 12 Z"
     style="fill:#c5c5c5;fill-rule:evenodd;stroke:none;stroke-width:1.07337534;fill-opacity:1"
     id="Shape" />
  <desc
     id="desc4">Created with Sketch.</desc>
  <defs
     id="defs6" />
  <circle
     style="fill:#ffffff"
     cx="7.5"
     cy="4.5"
     r="2.5"
     id="circle20" />
  <path
     style="fill:#ffffff;fill-rule:evenodd;stroke:none;stroke-width:1px;stroke-linecap:butt;stroke-linejoin:miter;stroke-opacity:1;fill-opacity:1"
     d="m 7,14 h 7 V 8 L 12,6 H 10 L 9,7 H 7 Z"
     id="path5164"
     inkscape:connector-curvature="0" />
  <g
     transform="matrix(0.63618732,0,0,0.63618732,-40.670882,-8.3610845)"
     id="g4"
     style="fill:#dc2c27;fill-opacity:0.86274511">
    <path
       style="fill:#dc2c27;fill-opacity:0.86274511"
       inkscape:connector-curvature="0"
       d="m 69.671996,1022.854 -3.964399,0 -1.982199,-3.9644 -1.982199,-5.9466 -1.982199,1.9822 1.9822,3.9644 -1.9822,3.9644 -3.964398,3.9644 1.982199,1.9822 1.982199,-3.9644 5.946597,0 3.964399,1.9822 z m -7.928796,0 -1e-6,-1.9822 1.982199,1.9822"
       transform="matrix(0.79299,0,0,0.79299,30.686,-780.68)"
       id="path2-4"
       sodipodi:nodetypes="cccccccccccccccc" />
  </g>
  <path
     inkscape:connector-curvature="0"
     style="fill:#c5c5c5;fill-opacity:1"
     d="M 11,4.5 C 11,2.567 9.433,1 7.5,1 5.567,1 4,2.567 4,4.5 4,5.211 4.215,5.869 4.579,6.422 L 1,10 2,11 5.579,7.422 C 6.131,7.785 6.79,8 7.5,8 9.433,8 11,6.433 11,4.5 Z m -5.999,0 c 0,-1.381 1.119,-2.5 2.5,-2.5 1.381,0 2.5,1.119 2.5,2.5 0,1.381 -1.12,2.5 -2.5,2.5 -1.38,0 -2.5,-1.119 -2.5,-2.5 z"
     id="path16" />
</svg>
