<?xml version="1.0" encoding="UTF-8" standalone="no"?>
<svg
   xmlns:dc="http://purl.org/dc/elements/1.1/"
   xmlns:cc="http://creativecommons.org/ns#"
   xmlns:rdf="http://www.w3.org/1999/02/22-rdf-syntax-ns#"
   xmlns:svg="http://www.w3.org/2000/svg"
   xmlns="http://www.w3.org/2000/svg"
   xmlns:sodipodi="http://sodipodi.sourceforge.net/DTD/sodipodi-0.dtd"
   xmlns:inkscape="http://www.inkscape.org/namespaces/inkscape"
   width="16"
   height="16"
   viewBox="0 0 16 16"
   version="1.1"
   id="svg11"
   sodipodi:docname="view-pdf-light.svg"
   inkscape:version="0.92.1 r15371"
   inkscape:export-filename="C:\Users\ban.necne\Projects\_vscode_\latex-workshop\view-pdf-light.png"
   inkscape:export-xdpi="96"
   inkscape:export-ydpi="96">
  <metadata
     id="metadata15">
    <rdf:RDF>
      <cc:Work
         rdf:about="">
        <dc:format>image/svg+xml</dc:format>
        <dc:type
           rdf:resource="http://purl.org/dc/dcmitype/StillImage" />
        <dc:title />
      </cc:Work>
    </rdf:RDF>
  </metadata>
  <sodipodi:namedview
     pagecolor="#ffffff"
     bordercolor="#666666"
     borderopacity="1"
     objecttolerance="10"
     gridtolerance="10"
     guidetolerance="10"
     inkscape:pageopacity="0"
     inkscape:pageshadow="2"
     inkscape:window-width="1200"
     inkscape:window-height="1867"
     id="namedview13"
     showgrid="true"
     inkscape:zoom="22.627417"
     inkscape:cx="-0.21025264"
     inkscape:cy="5.372027"
     inkscape:window-x="1192"
     inkscape:window-y="-8"
     inkscape:window-maximized="1"
     inkscape:current-layer="svg11">
    <inkscape:grid
       type="xygrid"
       id="grid4492" />
  </sodipodi:namedview>
  <ellipse
     style="fill:#ffffff;fill-opacity:1"
     cx="-9.5"
     cy="9.5"
     id="circle20"
     transform="scale(-1,1)"
     r="2.5" />
  <!-- Generator: Sketch 40.3 (33839) - http://www.bohemiancoding.com/sketch -->
  <desc
     id="desc4">Created with Sketch.</desc>
  <defs
     id="defs6" />
  <g
     transform="matrix(0.63618732,0,0,0.63618732,-45.670882,-12.361085)"
     id="g4"
     style="fill:#dc2c27;fill-opacity:1" />
  <path
     inkscape:connector-curvature="0"
     style="fill:#00539c;fill-opacity:1"
     d="M 5,8.5 C 5,6.567 6.567,5 8.5,5 10.433,5 12,6.567 12,8.5 12,9.211 11.785,9.869 11.421,10.422 L 15,14 14,15 10.421,11.422 C 9.869,11.785 9.21,12 8.5,12 6.567,12 5,10.433 5,8.5 Z m 5.999,0 C 10.999,7.119 9.88,6 8.499,6 c -1.381,0 -2.5,1.119 -2.5,2.5 0,1.381 1.12,2.5 2.5,2.5 1.38,0 2.5,-1.119 2.5,-2.5 z"
     id="path16"
     sodipodi:nodetypes="sssccccsssssss" />
  <path
     style="fill:#656565;fill-opacity:1;fill-rule:evenodd;stroke:none;stroke-width:1.07337534"
     d="M 1,1 V 11 H 4.7617188 A 4.5,4.5 0 0 1 4.2636719,10 H 2 V 2 H 7 V 4 H 8.5 9 v 0.03125 a 4.5,4.5 0 0 1 1,0.232422 V 4 L 7,1 Z"
     id="Shape-3"
     inkscape:connector-curvature="0" />
  <rect
     style="fill:#ff5858;fill-opacity:1;fill-rule:evenodd;stroke:none;stroke-width:6.76123381;stroke-linecap:square;stroke-linejoin:miter;stroke-miterlimit:4;stroke-dasharray:none;stroke-opacity:1;paint-order:fill markers stroke"
     id="rect4488"
     width="5"
     height="3"
     x="0"
     y="3" />
</svg>
