<?xml version="1.0" encoding="UTF-8"?>
<svg width="12px" height="16px" viewBox="0 0 12 16" version="1.1" xmlns="http://www.w3.org/2000/svg" xmlns:xlink="http://www.w3.org/1999/xlink">
    <!-- Generator: Sketch 40.3 (33839) - http://www.bohemiancoding.com/sketch -->
    <title>file</title>
    <desc>Created with Sketch.</desc>
    <defs></defs>
    <g id="Octicons" stroke="none" stroke-width="1" fill="none" fill-rule="evenodd">
        <g id="file">
            <path style="fill: gray" d="M6,5 L2,5 L2,4 L6,4 L6,5 L6,5 Z M2,8 L9,8 L9,7 L2,7 L2,8 L2,8 Z M2,10 L9,10 L9,9 L2,9 L2,10 L2,10 Z M2,12 L9,12 L9,11 L2,11 L2,12 L2,12 Z M12,4.5 L12,14 C12,14.55 11.55,15 11,15 L1,15 C0.45,15 0,14.55 0,14 L0,2 C0,1.45 0.45,1 1,1 L8.5,1 L12,4.5 L12,4.5 Z M11,5 L8,2 L1,2 L1,14 L11,14 L11,5 L11,5 Z" id="Shape"></path>
        </g>
    </g>
</svg>